<mxfile host="ac.draw.io" modified="2024-05-30T12:53:05.271Z" agent="Mozilla/5.0 (Macintosh; Intel Mac OS X 10_15_7) AppleWebKit/605.1.15 (KHTML, like Gecko) Version/17.4.1 Safari/605.1.15" etag="CcPDg80CGlecle6dqKjI" version="24.4.10" type="embed">
  <diagram id="VKOPUF3thVn4UK2sBC74" name="Page-1">
    <mxGraphModel dx="2026" dy="1173" grid="1" gridSize="10" guides="1" tooltips="1" connect="1" arrows="1" fold="1" page="1" pageScale="1" pageWidth="827" pageHeight="1169" math="0" shadow="0">
      <root>
        <mxCell id="0" />
        <mxCell id="1" parent="0" />
        <mxCell id="oc0pkLaOGv7j5f4Kwv-f-1" value="WEST_DDR_3" style="rounded=0;whiteSpace=wrap;html=1;fillColor=#dae8fc;strokeColor=#6c8ebf;" parent="1" vertex="1">
          <mxGeometry x="520" y="520" width="100" height="40" as="geometry" />
        </mxCell>
        <mxCell id="oc0pkLaOGv7j5f4Kwv-f-2" value="WEST_DDR_2" style="rounded=0;whiteSpace=wrap;html=1;fillColor=#dae8fc;strokeColor=#6c8ebf;" parent="1" vertex="1">
          <mxGeometry x="520" y="480" width="100" height="40" as="geometry" />
        </mxCell>
        <mxCell id="oc0pkLaOGv7j5f4Kwv-f-3" value="WEST_DDR_1" style="rounded=0;whiteSpace=wrap;html=1;fillColor=#dae8fc;strokeColor=#6c8ebf;" parent="1" vertex="1">
          <mxGeometry x="520" y="440" width="100" height="40" as="geometry" />
        </mxCell>
        <mxCell id="oc0pkLaOGv7j5f4Kwv-f-4" value="WEST_DDR_0" style="rounded=0;whiteSpace=wrap;html=1;fillColor=#dae8fc;strokeColor=#6c8ebf;" parent="1" vertex="1">
          <mxGeometry x="520" y="400" width="100" height="40" as="geometry" />
        </mxCell>
        <mxCell id="oc0pkLaOGv7j5f4Kwv-f-5" value="EAST_DDR_0" style="rounded=0;whiteSpace=wrap;html=1;fillColor=#fff2cc;strokeColor=#d6b656;" parent="1" vertex="1">
          <mxGeometry x="520" y="560" width="100" height="40" as="geometry" />
        </mxCell>
        <mxCell id="oc0pkLaOGv7j5f4Kwv-f-6" value="EAST_DDR_1" style="rounded=0;whiteSpace=wrap;html=1;fillColor=#fff2cc;strokeColor=#d6b656;" parent="1" vertex="1">
          <mxGeometry x="520" y="600" width="100" height="40" as="geometry" />
        </mxCell>
        <mxCell id="oc0pkLaOGv7j5f4Kwv-f-7" value="EAST_DDR_2" style="rounded=0;whiteSpace=wrap;html=1;fillColor=#fff2cc;strokeColor=#d6b656;" parent="1" vertex="1">
          <mxGeometry x="520" y="640" width="100" height="40" as="geometry" />
        </mxCell>
        <mxCell id="oc0pkLaOGv7j5f4Kwv-f-8" value="EAST_DDR_3" style="rounded=0;whiteSpace=wrap;html=1;fillColor=#fff2cc;strokeColor=#d6b656;" parent="1" vertex="1">
          <mxGeometry x="520" y="680" width="100" height="40" as="geometry" />
        </mxCell>
        <mxCell id="oc0pkLaOGv7j5f4Kwv-f-9" value="0x20_0000_0000" style="text;html=1;strokeColor=none;fillColor=none;align=right;verticalAlign=middle;whiteSpace=wrap;rounded=0;" parent="1" vertex="1">
          <mxGeometry x="270" y="380" width="120" height="40" as="geometry" />
        </mxCell>
        <mxCell id="oc0pkLaOGv7j5f4Kwv-f-10" value="0x28_0000_0000" style="text;html=1;strokeColor=none;fillColor=none;align=right;verticalAlign=middle;whiteSpace=wrap;rounded=0;" parent="1" vertex="1">
          <mxGeometry x="270" y="540" width="120" height="40" as="geometry" />
        </mxCell>
        <mxCell id="oc0pkLaOGv7j5f4Kwv-f-11" value="0x30_0000_0000" style="text;html=1;strokeColor=none;fillColor=none;align=right;verticalAlign=middle;whiteSpace=wrap;rounded=0;" parent="1" vertex="1">
          <mxGeometry x="270" y="700" width="120" height="40" as="geometry" />
        </mxCell>
        <mxCell id="oc0pkLaOGv7j5f4Kwv-f-12" value="4 WEST DDR&lt;br&gt;modules interleaved" style="rounded=0;whiteSpace=wrap;html=1;fillColor=#dae8fc;strokeColor=#6c8ebf;" parent="1" vertex="1">
          <mxGeometry x="400" y="400" width="120" height="160" as="geometry" />
        </mxCell>
        <mxCell id="oc0pkLaOGv7j5f4Kwv-f-13" value="4 EAST DDR&lt;br&gt;modules interleaved" style="rounded=0;whiteSpace=wrap;html=1;fillColor=#fff2cc;strokeColor=#d6b656;" parent="1" vertex="1">
          <mxGeometry x="400" y="560" width="120" height="160" as="geometry" />
        </mxCell>
        <mxCell id="oc0pkLaOGv7j5f4Kwv-f-14" value="WEST_DDR_3" style="rounded=0;whiteSpace=wrap;html=1;fillColor=#dae8fc;strokeColor=#6c8ebf;" parent="1" vertex="1">
          <mxGeometry x="930" y="520" width="100" height="40" as="geometry" />
        </mxCell>
        <mxCell id="oc0pkLaOGv7j5f4Kwv-f-15" value="WEST_DDR_2" style="rounded=0;whiteSpace=wrap;html=1;fillColor=#dae8fc;strokeColor=#6c8ebf;" parent="1" vertex="1">
          <mxGeometry x="930" y="480" width="100" height="40" as="geometry" />
        </mxCell>
        <mxCell id="oc0pkLaOGv7j5f4Kwv-f-16" value="WEST_DDR_1" style="rounded=0;whiteSpace=wrap;html=1;fillColor=#dae8fc;strokeColor=#6c8ebf;" parent="1" vertex="1">
          <mxGeometry x="930" y="440" width="100" height="40" as="geometry" />
        </mxCell>
        <mxCell id="oc0pkLaOGv7j5f4Kwv-f-17" value="WEST_DDR_0" style="rounded=0;whiteSpace=wrap;html=1;fillColor=#dae8fc;strokeColor=#6c8ebf;" parent="1" vertex="1">
          <mxGeometry x="930" y="400" width="100" height="40" as="geometry" />
        </mxCell>
        <mxCell id="oc0pkLaOGv7j5f4Kwv-f-18" value="EAST_DDR_0" style="rounded=0;whiteSpace=wrap;html=1;fillColor=#fff2cc;strokeColor=#d6b656;" parent="1" vertex="1">
          <mxGeometry x="930" y="560" width="100" height="40" as="geometry" />
        </mxCell>
        <mxCell id="oc0pkLaOGv7j5f4Kwv-f-19" value="EAST_DDR_1" style="rounded=0;whiteSpace=wrap;html=1;fillColor=#fff2cc;strokeColor=#d6b656;" parent="1" vertex="1">
          <mxGeometry x="930" y="600" width="100" height="40" as="geometry" />
        </mxCell>
        <mxCell id="oc0pkLaOGv7j5f4Kwv-f-20" value="EAST_DDR_2" style="rounded=0;whiteSpace=wrap;html=1;fillColor=#fff2cc;strokeColor=#d6b656;" parent="1" vertex="1">
          <mxGeometry x="930" y="640" width="100" height="40" as="geometry" />
        </mxCell>
        <mxCell id="oc0pkLaOGv7j5f4Kwv-f-21" value="EAST_DDR_3" style="rounded=0;whiteSpace=wrap;html=1;fillColor=#fff2cc;strokeColor=#d6b656;" parent="1" vertex="1">
          <mxGeometry x="930" y="680" width="100" height="40" as="geometry" />
        </mxCell>
        <mxCell id="oc0pkLaOGv7j5f4Kwv-f-22" value="0x20_0000_0000" style="text;html=1;strokeColor=none;fillColor=none;align=right;verticalAlign=middle;whiteSpace=wrap;rounded=0;" parent="1" vertex="1">
          <mxGeometry x="680" y="380" width="120" height="40" as="geometry" />
        </mxCell>
        <mxCell id="oc0pkLaOGv7j5f4Kwv-f-23" value="0x28_0000_0000" style="text;html=1;strokeColor=none;fillColor=none;align=right;verticalAlign=middle;whiteSpace=wrap;rounded=0;" parent="1" vertex="1">
          <mxGeometry x="680" y="540" width="120" height="40" as="geometry" />
        </mxCell>
        <mxCell id="oc0pkLaOGv7j5f4Kwv-f-24" value="0x30_0000_0000" style="text;html=1;strokeColor=none;fillColor=none;align=right;verticalAlign=middle;whiteSpace=wrap;rounded=0;" parent="1" vertex="1">
          <mxGeometry x="680" y="700" width="120" height="40" as="geometry" />
        </mxCell>
        <mxCell id="oc0pkLaOGv7j5f4Kwv-f-25" value="2 WEST DDR&lt;br&gt;modules interleaved" style="rounded=0;whiteSpace=wrap;html=1;fillColor=#dae8fc;strokeColor=#6c8ebf;" parent="1" vertex="1">
          <mxGeometry x="810" y="400" width="120" height="80" as="geometry" />
        </mxCell>
        <mxCell id="oc0pkLaOGv7j5f4Kwv-f-26" value="2 EAST DDR&lt;br&gt;modules interleaved" style="rounded=0;whiteSpace=wrap;html=1;fillColor=#fff2cc;strokeColor=#d6b656;" parent="1" vertex="1">
          <mxGeometry x="810" y="560" width="120" height="80" as="geometry" />
        </mxCell>
        <mxCell id="oc0pkLaOGv7j5f4Kwv-f-27" value="2 WEST DDR&lt;br&gt;modules interleaved" style="rounded=0;whiteSpace=wrap;html=1;fillColor=#dae8fc;strokeColor=#6c8ebf;" parent="1" vertex="1">
          <mxGeometry x="810" y="480" width="120" height="80" as="geometry" />
        </mxCell>
        <mxCell id="oc0pkLaOGv7j5f4Kwv-f-28" value="2 EAST DDR&lt;br&gt;modules interleaved" style="rounded=0;whiteSpace=wrap;html=1;fillColor=#fff2cc;strokeColor=#d6b656;" parent="1" vertex="1">
          <mxGeometry x="810" y="640" width="120" height="80" as="geometry" />
        </mxCell>
        <mxCell id="oc0pkLaOGv7j5f4Kwv-f-29" value="0x24_0000_0000" style="text;html=1;strokeColor=none;fillColor=none;align=right;verticalAlign=middle;whiteSpace=wrap;rounded=0;" parent="1" vertex="1">
          <mxGeometry x="680" y="460" width="120" height="40" as="geometry" />
        </mxCell>
        <mxCell id="oc0pkLaOGv7j5f4Kwv-f-30" value="0x2C_0000_0000" style="text;html=1;strokeColor=none;fillColor=none;align=right;verticalAlign=middle;whiteSpace=wrap;rounded=0;" parent="1" vertex="1">
          <mxGeometry x="680" y="620" width="120" height="40" as="geometry" />
        </mxCell>
        <mxCell id="oc0pkLaOGv7j5f4Kwv-f-31" value="WEST_DDR_3" style="rounded=0;whiteSpace=wrap;html=1;fillColor=#dae8fc;strokeColor=#6c8ebf;" parent="1" vertex="1">
          <mxGeometry x="1210" y="520" width="100" height="40" as="geometry" />
        </mxCell>
        <mxCell id="oc0pkLaOGv7j5f4Kwv-f-32" value="WEST_DDR_2" style="rounded=0;whiteSpace=wrap;html=1;fillColor=#dae8fc;strokeColor=#6c8ebf;" parent="1" vertex="1">
          <mxGeometry x="1210" y="480" width="100" height="40" as="geometry" />
        </mxCell>
        <mxCell id="oc0pkLaOGv7j5f4Kwv-f-33" value="WEST_DDR_1" style="rounded=0;whiteSpace=wrap;html=1;fillColor=#dae8fc;strokeColor=#6c8ebf;" parent="1" vertex="1">
          <mxGeometry x="1210" y="440" width="100" height="40" as="geometry" />
        </mxCell>
        <mxCell id="oc0pkLaOGv7j5f4Kwv-f-34" value="WEST_DDR_0" style="rounded=0;whiteSpace=wrap;html=1;fillColor=#dae8fc;strokeColor=#6c8ebf;" parent="1" vertex="1">
          <mxGeometry x="1210" y="400" width="100" height="40" as="geometry" />
        </mxCell>
        <mxCell id="oc0pkLaOGv7j5f4Kwv-f-35" value="EAST_DDR_0" style="rounded=0;whiteSpace=wrap;html=1;fillColor=#fff2cc;strokeColor=#d6b656;" parent="1" vertex="1">
          <mxGeometry x="1210" y="560" width="100" height="40" as="geometry" />
        </mxCell>
        <mxCell id="oc0pkLaOGv7j5f4Kwv-f-36" value="EAST_DDR_1" style="rounded=0;whiteSpace=wrap;html=1;fillColor=#fff2cc;strokeColor=#d6b656;" parent="1" vertex="1">
          <mxGeometry x="1210" y="600" width="100" height="40" as="geometry" />
        </mxCell>
        <mxCell id="oc0pkLaOGv7j5f4Kwv-f-37" value="EAST_DDR_2" style="rounded=0;whiteSpace=wrap;html=1;fillColor=#fff2cc;strokeColor=#d6b656;" parent="1" vertex="1">
          <mxGeometry x="1210" y="640" width="100" height="40" as="geometry" />
        </mxCell>
        <mxCell id="oc0pkLaOGv7j5f4Kwv-f-38" value="EAST_DDR_3" style="rounded=0;whiteSpace=wrap;html=1;fillColor=#fff2cc;strokeColor=#d6b656;" parent="1" vertex="1">
          <mxGeometry x="1210" y="680" width="100" height="40" as="geometry" />
        </mxCell>
        <mxCell id="oc0pkLaOGv7j5f4Kwv-f-39" value="0x20_0000_0000" style="text;html=1;strokeColor=none;fillColor=none;align=right;verticalAlign=middle;whiteSpace=wrap;rounded=0;" parent="1" vertex="1">
          <mxGeometry x="1080" y="380" width="120" height="40" as="geometry" />
        </mxCell>
        <mxCell id="oc0pkLaOGv7j5f4Kwv-f-40" value="0x28_0000_0000" style="text;html=1;strokeColor=none;fillColor=none;align=right;verticalAlign=middle;whiteSpace=wrap;rounded=0;" parent="1" vertex="1">
          <mxGeometry x="1080" y="540" width="120" height="40" as="geometry" />
        </mxCell>
        <mxCell id="oc0pkLaOGv7j5f4Kwv-f-41" value="0x30_0000_0000" style="text;html=1;strokeColor=none;fillColor=none;align=right;verticalAlign=middle;whiteSpace=wrap;rounded=0;" parent="1" vertex="1">
          <mxGeometry x="1080" y="700" width="120" height="40" as="geometry" />
        </mxCell>
        <mxCell id="oc0pkLaOGv7j5f4Kwv-f-42" value="0x24_0000_0000" style="text;html=1;strokeColor=none;fillColor=none;align=right;verticalAlign=middle;whiteSpace=wrap;rounded=0;" parent="1" vertex="1">
          <mxGeometry x="1080" y="460" width="120" height="40" as="geometry" />
        </mxCell>
        <mxCell id="oc0pkLaOGv7j5f4Kwv-f-43" value="0x2C_0000_0000" style="text;html=1;strokeColor=none;fillColor=none;align=right;verticalAlign=middle;whiteSpace=wrap;rounded=0;" parent="1" vertex="1">
          <mxGeometry x="1080" y="620" width="120" height="40" as="geometry" />
        </mxCell>
        <mxCell id="oc0pkLaOGv7j5f4Kwv-f-44" value="0x22_0000_0000" style="text;html=1;strokeColor=none;fillColor=none;align=right;verticalAlign=middle;whiteSpace=wrap;rounded=0;" parent="1" vertex="1">
          <mxGeometry x="1080" y="420" width="120" height="40" as="geometry" />
        </mxCell>
        <mxCell id="oc0pkLaOGv7j5f4Kwv-f-45" value="0x26_0000_0000" style="text;html=1;strokeColor=none;fillColor=none;align=right;verticalAlign=middle;whiteSpace=wrap;rounded=0;" parent="1" vertex="1">
          <mxGeometry x="1080" y="500" width="120" height="40" as="geometry" />
        </mxCell>
        <mxCell id="oc0pkLaOGv7j5f4Kwv-f-46" value="0x2A_0000_0000" style="text;html=1;strokeColor=none;fillColor=none;align=right;verticalAlign=middle;whiteSpace=wrap;rounded=0;" parent="1" vertex="1">
          <mxGeometry x="1080" y="580" width="120" height="40" as="geometry" />
        </mxCell>
        <mxCell id="oc0pkLaOGv7j5f4Kwv-f-47" value="0x2E_0000_0000" style="text;html=1;strokeColor=none;fillColor=none;align=right;verticalAlign=middle;whiteSpace=wrap;rounded=0;" parent="1" vertex="1">
          <mxGeometry x="1080" y="660" width="120" height="40" as="geometry" />
        </mxCell>
        <mxCell id="oc0pkLaOGv7j5f4Kwv-f-48" value="&lt;h1&gt;2x4 interleaving&lt;/h1&gt;&lt;p&gt;- Any access to WEST DDR hits all west ddr modules (same for east)&lt;/p&gt;&lt;p&gt;- BW visible is 102.4GB/s in each interleaved section&lt;/p&gt;&lt;p&gt;- 1K, 2K or &lt;b&gt;4K&lt;/b&gt; interleaving&lt;/p&gt;&lt;p&gt;- &lt;b&gt;Default mode&lt;/b&gt;&lt;/p&gt;" style="text;html=1;strokeColor=none;fillColor=none;spacing=5;spacingTop=-20;whiteSpace=wrap;overflow=hidden;rounded=0;" parent="1" vertex="1">
          <mxGeometry x="280" y="220" width="340" height="160" as="geometry" />
        </mxCell>
        <mxCell id="oc0pkLaOGv7j5f4Kwv-f-49" value="&lt;h1&gt;4x2 interleaving&lt;/h1&gt;&lt;p&gt;- 2 smaller interleaving regions instead of one large one per side&lt;/p&gt;&lt;p&gt;- allows to keep traffic separate if required.&lt;/p&gt;&lt;p&gt;- BW visible is 52.6GB/s in each interleaved section&lt;/p&gt;&lt;p&gt;-1K, 2K or &lt;b&gt;4K&lt;/b&gt; interleaving&lt;/p&gt;" style="text;html=1;strokeColor=none;fillColor=none;spacing=5;spacingTop=-20;whiteSpace=wrap;overflow=hidden;rounded=0;" parent="1" vertex="1">
          <mxGeometry x="690" y="220" width="340" height="160" as="geometry" />
        </mxCell>
        <mxCell id="oc0pkLaOGv7j5f4Kwv-f-50" value="&lt;h1&gt;Contiguous&lt;/h1&gt;&lt;p&gt;- No interleaving, just stacked addressing of all DDR modules&lt;/p&gt;&lt;p&gt;- BW visible is 52.6GB/s in each interleaved section&lt;/p&gt;" style="text;html=1;strokeColor=none;fillColor=none;spacing=5;spacingTop=-20;whiteSpace=wrap;overflow=hidden;rounded=0;" parent="1" vertex="1">
          <mxGeometry x="1080" y="220" width="240" height="140" as="geometry" />
        </mxCell>
        <mxCell id="oc0pkLaOGv7j5f4Kwv-f-51" value="WEST_DDR_3" style="rounded=0;whiteSpace=wrap;html=1;fillColor=#dae8fc;strokeColor=#6c8ebf;" parent="1" vertex="1">
          <mxGeometry x="140" y="520" width="100" height="40" as="geometry" />
        </mxCell>
        <mxCell id="oc0pkLaOGv7j5f4Kwv-f-52" value="WEST_DDR_2" style="rounded=0;whiteSpace=wrap;html=1;fillColor=#dae8fc;strokeColor=#6c8ebf;" parent="1" vertex="1">
          <mxGeometry x="140" y="480" width="100" height="40" as="geometry" />
        </mxCell>
        <mxCell id="oc0pkLaOGv7j5f4Kwv-f-53" value="WEST_DDR_1" style="rounded=0;whiteSpace=wrap;html=1;fillColor=#dae8fc;strokeColor=#6c8ebf;" parent="1" vertex="1">
          <mxGeometry x="140" y="440" width="100" height="40" as="geometry" />
        </mxCell>
        <mxCell id="oc0pkLaOGv7j5f4Kwv-f-54" value="WEST_DDR_0" style="rounded=0;whiteSpace=wrap;html=1;fillColor=#dae8fc;strokeColor=#6c8ebf;" parent="1" vertex="1">
          <mxGeometry x="140" y="400" width="100" height="40" as="geometry" />
        </mxCell>
        <mxCell id="oc0pkLaOGv7j5f4Kwv-f-55" value="EAST_DDR_0" style="rounded=0;whiteSpace=wrap;html=1;fillColor=#fff2cc;strokeColor=#d6b656;" parent="1" vertex="1">
          <mxGeometry x="140" y="560" width="100" height="40" as="geometry" />
        </mxCell>
        <mxCell id="oc0pkLaOGv7j5f4Kwv-f-56" value="EAST_DDR_1" style="rounded=0;whiteSpace=wrap;html=1;fillColor=#fff2cc;strokeColor=#d6b656;" parent="1" vertex="1">
          <mxGeometry x="140" y="600" width="100" height="40" as="geometry" />
        </mxCell>
        <mxCell id="oc0pkLaOGv7j5f4Kwv-f-57" value="EAST_DDR_2" style="rounded=0;whiteSpace=wrap;html=1;fillColor=#fff2cc;strokeColor=#d6b656;" parent="1" vertex="1">
          <mxGeometry x="140" y="640" width="100" height="40" as="geometry" />
        </mxCell>
        <mxCell id="oc0pkLaOGv7j5f4Kwv-f-58" value="EAST_DDR_3" style="rounded=0;whiteSpace=wrap;html=1;fillColor=#fff2cc;strokeColor=#d6b656;" parent="1" vertex="1">
          <mxGeometry x="140" y="680" width="100" height="40" as="geometry" />
        </mxCell>
        <mxCell id="oc0pkLaOGv7j5f4Kwv-f-59" value="0x20_0000_0000" style="text;html=1;strokeColor=none;fillColor=none;align=right;verticalAlign=middle;whiteSpace=wrap;rounded=0;" parent="1" vertex="1">
          <mxGeometry x="-110" y="380" width="120" height="40" as="geometry" />
        </mxCell>
        <mxCell id="oc0pkLaOGv7j5f4Kwv-f-60" value="0x30_0000_0000" style="text;html=1;strokeColor=none;fillColor=none;align=right;verticalAlign=middle;whiteSpace=wrap;rounded=0;" parent="1" vertex="1">
          <mxGeometry x="-110" y="700" width="120" height="40" as="geometry" />
        </mxCell>
        <mxCell id="oc0pkLaOGv7j5f4Kwv-f-61" value="8 DDR modules interleaved" style="rounded=0;whiteSpace=wrap;html=1;" parent="1" vertex="1">
          <mxGeometry x="20" y="400" width="120" height="320" as="geometry" />
        </mxCell>
        <mxCell id="oc0pkLaOGv7j5f4Kwv-f-62" value="&lt;h1&gt;1x8 interleaving&lt;/h1&gt;&lt;p&gt;- NOT SUPPORTED&lt;/p&gt;&lt;p&gt;- Each LPDDR transaction would hit all DDR modules -&amp;gt; requires a lot of data distribution + all traffic interferes with one another.&lt;/p&gt;" style="text;html=1;strokeColor=none;fillColor=none;spacing=5;spacingTop=-20;whiteSpace=wrap;overflow=hidden;rounded=0;" parent="1" vertex="1">
          <mxGeometry x="-100" y="220" width="340" height="120" as="geometry" />
        </mxCell>
        <mxCell id="oc0pkLaOGv7j5f4Kwv-f-63" value="" style="endArrow=none;dashed=1;html=1;dashPattern=1 3;strokeWidth=4;rounded=0;entryX=1;entryY=0;entryDx=0;entryDy=0;exitX=0.083;exitY=0.5;exitDx=0;exitDy=0;exitPerimeter=0;strokeColor=#FF3333;" parent="1" source="oc0pkLaOGv7j5f4Kwv-f-60" target="oc0pkLaOGv7j5f4Kwv-f-62" edge="1">
          <mxGeometry width="50" height="50" relative="1" as="geometry">
            <mxPoint x="460" y="450" as="sourcePoint" />
            <mxPoint x="510" y="400" as="targetPoint" />
          </mxGeometry>
        </mxCell>
        <mxCell id="oc0pkLaOGv7j5f4Kwv-f-64" value="" style="endArrow=none;dashed=1;html=1;dashPattern=1 3;strokeWidth=4;rounded=0;entryX=0;entryY=0;entryDx=0;entryDy=0;exitX=1;exitY=1;exitDx=0;exitDy=0;strokeColor=#FF3333;" parent="1" source="oc0pkLaOGv7j5f4Kwv-f-58" target="oc0pkLaOGv7j5f4Kwv-f-62" edge="1">
          <mxGeometry width="50" height="50" relative="1" as="geometry">
            <mxPoint x="-90" y="730" as="sourcePoint" />
            <mxPoint x="250" y="250" as="targetPoint" />
          </mxGeometry>
        </mxCell>
      </root>
    </mxGraphModel>
  </diagram>
</mxfile>
